<?xml version="1.0" standalone="no"?><!DOCTYPE svg PUBLIC "-//W3C//DTD SVG 1.1//EN" "http://www.w3.org/Graphics/SVG/1.1/DTD/svg11.dtd"><svg class="icon" width="200px" height="200.00px" viewBox="0 0 1024 1024" version="1.1" xmlns="http://www.w3.org/2000/svg"><path fill="#333333" d="M870.7 486.7c-14 0-25.3 11.3-25.3 25.3v333.4H178.6V178.6H512c14 0 25.3-11.3 25.3-25.3S526 128 512 128H167.8c-21.9 0-39.8 17.8-39.8 39.8v688.4c0 21.9 17.8 39.8 39.8 39.8h688.4c21.9 0 39.8-17.8 39.8-39.8V512c0-14-11.3-25.3-25.3-25.3zM856.2 128H600.1c-14 0-25.3 11.3-25.3 25.3s11.3 25.3 25.3 25.3h209.5l-444 444c-9.9 9.9-9.9 25.9 0 35.8 4.9 4.9 11.4 7.4 17.9 7.4 6.5 0 13-2.5 17.9-7.4l444-444v209.5c0 14 11.3 25.3 25.3 25.3s25.3-11.3 25.3-25.3V167.8c0-22-17.8-39.8-39.8-39.8z" /></svg>