<?xml version="1.0" standalone="no"?><!DOCTYPE svg PUBLIC "-//W3C//DTD SVG 1.1//EN" "http://www.w3.org/Graphics/SVG/1.1/DTD/svg11.dtd"><svg class="icon" width="200px" height="200.00px" viewBox="0 0 1024 1024" version="1.1" xmlns="http://www.w3.org/2000/svg"><path fill="#333333" d="M493.2 257.2c-5.6-2.6-11.8-3.5-17.9-2.7-6.1 0.8-11.8 3.4-16.5 7.4L317.5 383.1h-74c-41.5 0-75.2 33.7-75.2 75.2v107.4c0 19.9 7.9 39.1 22 53.2 14.1 14.1 33.2 22 53.2 22h74L458.8 762c4.7 4 10.4 6.6 16.5 7.4 6.1 0.9 12.3-0.1 17.9-2.6 5.6-2.6 10.3-6.7 13.7-11.9 3.3-5.2 5.1-11.2 5.1-17.4V286.4c0-6.2-1.8-12.2-5.1-17.4-3.3-5.1-8.1-9.3-13.7-11.8z m-45.6 410.3l-97.2-83.4c-5.8-5-13.3-7.7-21-7.7h-85.9c-5.9 0-10.7-4.8-10.7-10.7V458.3c0-2.8 1.1-5.6 3.1-7.6s4.7-3.1 7.6-3.1h85.9c7.7 0 15.1-2.8 21-7.8l97.2-83.3v311zM778 524.8l76.7-76.7c12.3-12.3 12.3-32.2 0-44.5-12.3-12.3-32.2-12.3-44.5 0l-76.7 76.7-76.7-76.7c-12.3-12.3-32.2-12.3-44.5 0-12.3 12.3-12.3 32.2 0 44.5l76.7 76.7-76.7 76.7c-12.3 12.3-12.3 32.2 0 44.5 12.3 12.3 32.2 12.3 44.5 0l76.7-76.7 76.7 76.7c12.3 12.3 32.2 12.3 44.5 0 12.3-12.3 12.3-32.2 0-44.5L778 524.8z" /></svg>