<?xml version="1.0" standalone="no"?><!DOCTYPE svg PUBLIC "-//W3C//DTD SVG 1.1//EN" "http://www.w3.org/Graphics/SVG/1.1/DTD/svg11.dtd"><svg class="icon" width="200px" height="200.00px" viewBox="0 0 1024 1024" version="1.1" xmlns="http://www.w3.org/2000/svg"><path fill="#333333" d="M527.36 244.79A22.11 22.11 0 0 0 493.69 226L261.43 368.51a22.08 22.08 0 0 0-6.53 6.15h-74.86a28 28 0 0 0-27.94 28l0.07 218.77a28 28 0 0 0 28 27.94h74.74a22.08 22.08 0 0 0 6.65 6.32l232.35 142.4a22.11 22.11 0 0 0 33.66-18.86zM819.62 737.86a30 30 0 0 1-26-45 362.71 362.71 0 0 0-0.13-361.71 30 30 0 0 1 51.95-30 422.7 422.7 0 0 1 0.15 421.72 30 30 0 0 1-25.97 14.99zM706.37 672.48a30 30 0 0 1-26-45 231.8 231.8 0 0 0-0.13-231 30 30 0 1 1 52-30 291.8 291.8 0 0 1 0.16 290.94 30 30 0 0 1-26.03 15.06zM593.13 607.1a30 30 0 0 1-26-44.94 100.91 100.91 0 0 0-0.13-100.27 30 30 0 1 1 52-30 160.9 160.9 0 0 1 0.18 160.11 30 30 0 0 1-26.05 15.1z" /></svg>