<?xml version="1.0" standalone="no"?><!DOCTYPE svg PUBLIC "-//W3C//DTD SVG 1.1//EN" "http://www.w3.org/Graphics/SVG/1.1/DTD/svg11.dtd"><svg t="1624103598019" class="icon" viewBox="0 0 1024 1024" version="1.1" xmlns="http://www.w3.org/2000/svg" p-id="9869" xmlns:xlink="http://www.w3.org/1999/xlink" width="200" height="200"><defs><style type="text/css"></style></defs><path d="M508.5 518.22m-447.33 0a447.33 447.33 0 1 0 894.66 0 447.33 447.33 0 1 0-894.66 0Z" fill="#CCCCCC" p-id="9870"></path><path d="M703.55 482.23c-2.65-4.18-6.03-8.06-10-11.51L488.88 292.59l-0.16-0.16c-15.38-15.14-38.21-19.53-58.18-11.19-19.95 8.34-32.86 27.7-32.89 49.34l-0.47 362.69v0.01c-0.02 21.72 12.92 41.15 32.96 49.5 6.7 2.79 13.71 4.15 20.66 4.15 13.85 0 27.42-5.39 37.68-15.6l0.13-0.13 205-180.16c4.7-4.1 8.55-8.8 11.47-14 9.61-17.22 9.02-38.22-1.53-54.81z" fill="#FFFFFF" p-id="9871"></path></svg>