<?xml version="1.0" standalone="no"?><!DOCTYPE svg PUBLIC "-//W3C//DTD SVG 1.1//EN" "http://www.w3.org/Graphics/SVG/1.1/DTD/svg11.dtd"><svg class="icon" width="200px" height="200.00px" viewBox="0 0 1024 1024" version="1.1" xmlns="http://www.w3.org/2000/svg"><path fill="#333333" d="M828.708571 869.668571H280.868571a111.177143 111.177143 0 0 1-111.177142-111.177142V352.548571A111.177143 111.177143 0 0 1 280.868571 241.371429h547.84a111.908571 111.908571 0 0 1 111.908572 111.177142v405.942858a111.908571 111.908571 0 0 1-111.908572 111.177142z m-547.84-570.514285a53.394286 53.394286 0 0 0-53.394285 53.394285v405.942858a54.125714 54.125714 0 0 0 53.394285 54.125714h547.84a54.125714 54.125714 0 0 0 54.125715-54.125714V352.548571a54.125714 54.125714 0 0 0-54.125715-53.394285z"  /><path fill="#333333" d="M403.017143 275.017143a29.988571 29.988571 0 0 1-21.942857-10.24L261.851429 123.611429a28.525714 28.525714 0 0 1 0-40.228572 29.988571 29.988571 0 0 1 40.96 0l122.148571 144.091429a29.257143 29.257143 0 0 1 0 40.96 27.794286 27.794286 0 0 1-21.942857 6.582857zM703.634286 275.017143a27.794286 27.794286 0 0 1-18.285715-6.582857 29.257143 29.257143 0 0 1 0-40.96l118.491429-141.165715a29.988571 29.988571 0 0 1 40.96 0 28.525714 28.525714 0 0 1 3.657143 40.228572L725.577143 264.777143a29.988571 29.988571 0 0 1-21.942857 10.24zM505.417143 687.542857a49.005714 49.005714 0 0 1-24.868572-6.582857 49.737143 49.737143 0 0 1-24.868571-43.154286V473.234286a51.2 51.2 0 0 1 24.868571-43.154286 49.005714 49.005714 0 0 1 49.005715 0L676.571429 512a51.2 51.2 0 0 1 24.868571 43.885714 49.737143 49.737143 0 0 1-24.868571 43.154286l-146.285715 81.92a48.274286 48.274286 0 0 1-24.868571 6.582857zM512 487.131429v136.777142l123.611429-68.022857z"  /></svg>