<?xml version="1.0" standalone="no"?><!DOCTYPE svg PUBLIC "-//W3C//DTD SVG 1.1//EN" "http://www.w3.org/Graphics/SVG/1.1/DTD/svg11.dtd"><svg class="icon" width="200px" height="200.00px" viewBox="0 0 1024 1024" version="1.1" xmlns="http://www.w3.org/2000/svg"><path fill="#333333" d="M878 570c18.59 0 33.695 14.92 34 33.438v216.288c0 50.488-40.648 91.448-91.024 92.262l-1.53 0.012H204.554c-50.568 0-91.723-40.454-92.54-90.747l-0.013-1.527V604c0-18.778 15.222-34 34-34 18.59 0 33.695 14.92 33.995 33.438L180 604v240h664V604c0-18.778 15.222-34 34-34zM514 113c17.673 0 32 14.327 32 32v460.752l108.704-108.785 0.4-0.394c13.303-12.887 34.533-12.764 47.683 0.377l0.395 0.4c12.887 13.302 12.763 34.533-0.377 47.683L542.43 705.524l-0.177 0.2c-0.145 0.16-0.267 0.282-0.4 0.408l-0.29 0.268c-16.416 16.405-43.034 16.388-59.424-0.058l-161.19-161.31-0.395-0.4c-12.877-13.312-12.738-34.542 0.412-47.682l0.401-0.395c13.312-12.877 34.542-12.738 47.682 0.412L478 606V145c0-17.673 14.327-32 32-32z" /></svg>