<?xml version="1.0" standalone="no"?><!DOCTYPE svg PUBLIC "-//W3C//DTD SVG 1.1//EN" "http://www.w3.org/Graphics/SVG/1.1/DTD/svg11.dtd"><svg class="icon" width="200px" height="200.00px" viewBox="0 0 1024 1024" version="1.1" xmlns="http://www.w3.org/2000/svg"><path fill="#333333" d="M683.816181 471.854675 147.889235 50.679239c-15.374152-12.084223-36.276205-14.32117-53.862745-5.776563C76.451206 53.446259 65.290005 71.276347 65.290005 90.819448l0 842.364173c0 19.543102 11.161201 37.373189 28.735461 45.916772 7.091512 3.447519 14.719236 5.135974 22.310122 5.135974 11.236925 0 22.378683-3.707438 31.552623-10.912537l535.926946-421.188738c12.31549-9.67843 19.506263-24.478508 19.506263-40.140209C703.32142 496.328066 696.130647 481.533105 683.816181 471.854675zM167.395498 828.131007l0-632.259968 402.25041 316.123844L167.395498 828.131007zM958.708971 111.565958l0 810.942533c0 31.720446-25.712615 57.434084-57.434084 57.434084-31.721469 0-57.434084-25.713638-57.434084-57.434084L843.840804 111.565958c0-31.721469 25.712615-57.434084 57.434084-57.434084C932.996356 54.131875 958.708971 79.844489 958.708971 111.565958z" /></svg>