<?xml version="1.0" standalone="no"?><!DOCTYPE svg PUBLIC "-//W3C//DTD SVG 1.1//EN" "http://www.w3.org/Graphics/SVG/1.1/DTD/svg11.dtd"><svg class="icon" width="200px" height="200.00px" viewBox="0 0 1024 1024" version="1.1" xmlns="http://www.w3.org/2000/svg"><path fill="#333333" d="M930.248779 51.421136c-17.382902-8.393157-38.056758-6.107091-53.191456 5.929036l-522.479679 415.249469c-12.010545 9.54847-19.016099 24.054859-19.016099 39.402405 0 15.347546 7.005554 29.853935 19.016099 39.402405l522.479679 415.249469c9.081843 7.219425 20.154016 10.929934 31.323403 10.929934 7.43432 0 14.917758-1.645476 21.86703-5.000897 17.400299-8.399297 28.460192-26.01449 28.460192-45.331441L958.707948 96.752578C958.708971 77.435627 947.649078 59.820434 930.248779 51.421136zM858.042247 822.953078 466.790332 512.002047l391.251915-310.951031L858.042247 822.953078zM178.540326 117.206422 178.540326 916.731928c0 31.274284-25.350364 56.624648-56.624648 56.624648-31.275307 0-56.624648-25.350364-56.624648-56.624648L65.291029 117.206422c0-31.273261 25.350364-56.624648 56.624648-56.624648C153.189961 60.581774 178.540326 85.933161 178.540326 117.206422z" /></svg>